<?xml version="1.0" standalone="no"?><!DOCTYPE svg PUBLIC "-//W3C//DTD SVG 1.1//EN" "http://www.w3.org/Graphics/SVG/1.1/DTD/svg11.dtd"><svg t="1565833708093" class="icon" viewBox="0 0 1024 1024" version="1.1" xmlns="http://www.w3.org/2000/svg" p-id="1389" xmlns:xlink="http://www.w3.org/1999/xlink" width="200" height="200"><defs><style type="text/css"></style></defs><path d="M512 0C230.4 0 0 230.4 0 512s230.4 512 512 512 512-230.4 512-512S793.6 0 512 0z m0 102.4c97.28 0 184.32 30.72 250.88 87.04L189.44 762.88C133.12 696.32 102.4 609.28 102.4 512c0-225.28 184.32-409.6 409.6-409.6z m0 819.2c-97.28 0-184.32-30.72-250.88-87.04L834.56 261.12c56.32 66.56 87.04 153.6 87.04 250.88 0 225.28-184.32 409.6-409.6 409.6z" p-id="1390"></path></svg>