<?xml version="1.0" standalone="no"?><!DOCTYPE svg PUBLIC "-//W3C//DTD SVG 1.1//EN" "http://www.w3.org/Graphics/SVG/1.1/DTD/svg11.dtd"><svg t="1572841102801" class="icon" viewBox="0 0 1024 1024" version="1.1" xmlns="http://www.w3.org/2000/svg" p-id="5842" xmlns:xlink="http://www.w3.org/1999/xlink" width="200" height="200"><defs><style type="text/css"></style></defs><path d="M972.8 0H51.2a51.2 51.2 0 0 0-51.2 51.2v921.6a51.2 51.2 0 0 0 51.2 51.2h921.6a51.2 51.2 0 0 0 51.2-51.2V51.2a51.2 51.2 0 0 0-51.2-51.2z m0 972.8H51.2V665.6h435.2v25.6a25.6 25.6 0 0 0 51.2 0v-25.6h80.128v25.6a25.6 25.6 0 0 0 51.2 0v-25.6h80.128v25.6a25.6 25.6 0 0 0 51.2 0v-25.6H972.8z m0-332.8h-172.8v-25.6a25.6 25.6 0 0 0-51.2 0v25.6h-79.872v-25.6a25.6 25.6 0 0 0-51.2 0v25.6H537.6v-25.6a25.6 25.6 0 0 0-51.2 0v25.6H51.2V384h123.648v25.6a25.6 25.6 0 0 0 51.2 0v-25.6h104.448v25.6a25.6 25.6 0 0 0 51.2 0v-25.6h477.952v25.6a25.6 25.6 0 1 0 51.2 0v-25.6H972.8z m-61.952-281.6v-25.6a25.6 25.6 0 0 0-51.2 0v25.6H381.952v-25.6a25.6 25.6 0 0 0-51.2 0v25.6H226.048v-25.6a25.6 25.6 0 0 0-51.2 0v25.6H51.2V51.2h921.6v307.2z" fill="" p-id="5843"></path></svg>