<?xml version="1.0" standalone="no"?><!DOCTYPE svg PUBLIC "-//W3C//DTD SVG 1.1//EN" "http://www.w3.org/Graphics/SVG/1.1/DTD/svg11.dtd"><svg t="1565833747454" class="icon" viewBox="0 0 1024 1024" version="1.1" xmlns="http://www.w3.org/2000/svg" p-id="1592" xmlns:xlink="http://www.w3.org/1999/xlink" width="200" height="200"><defs><style type="text/css"></style></defs><path d="M512 805.656535c21.497824 0 39.92453 17.403 39.92453 39.92453 0 21.497824-18.426706 38.900824-39.92453 38.900823-21.497824 0-38.900824-17.403-38.900824-38.900823 0-21.497824 17.403-39.92453 38.900824-39.92453z m-282.542825-644.93471c21.497824 0 39.92453 17.403 39.924529 38.900823 0 21.497824-17.403 38.900824-39.924529 38.900824-21.497824 0-38.900824-17.403-38.900824-38.900824-1.023706-20.474118 16.379294-38.900824 38.900824-38.900823z m564.061945 0c21.497824 0 38.900824 17.403 38.900823 38.900823 0 21.497824-17.403 38.900824-38.900823 38.900824-21.497824 0-39.92453-17.403-39.92453-38.900824 0-20.474118 18.426706-38.900824 39.92453-38.900823zM512 743.210476c60.398647-49.137883 110.560236-111.583942 147.413648-181.195943 39.92453-74.73053 65.517177-158.674413 75.754236-242.618296-7.165941-7.165941-14.331882-14.331882-21.497824-22.521529-7.165941-7.165941-13.308177-15.355588-19.450412-22.52153H330.804058c-6.142235 8.189647-13.308177 15.355588-20.474118 22.52153-7.165941 8.189647-14.331882 15.355588-21.497824 22.521529 10.237059 83.943883 35.829706 166.86406 76.777942 241.59459 36.853412 69.612 85.991295 132.05806 146.389942 182.219649z m189.38559-158.674413c-42.995647 79.849059-101.346883 151.508472-174.030002 206.788589l-1.023706 1.023706c-8.189647 6.142235-20.474118 6.142235-28.663764 0-72.683118-56.303824-131.034354-127.963236-174.030002-208.836001-45.043059-82.920177-72.683118-176.077413-82.920177-270.258355-1.023706-8.189647 2.047412-16.379294 8.189647-21.497824 10.237059-8.189647 18.426706-17.403 27.640059-25.592647 8.189647-9.213353 16.379294-18.426706 23.545236-28.663765 4.094824-5.118529 11.260765-10.237059 19.450412-10.237059H706.504119c7.165941 0 14.331882 3.071118 18.426706 9.213353 8.189647 10.237059 16.379294 20.474118 23.545235 29.687471 8.189647 8.189647 17.403 17.403 26.616354 25.592647 6.142235 5.118529 9.213353 12.284471 8.189647 20.474118-9.213353 95.204648-36.853412 188.361884-81.896471 272.305767zM512 939.762006c258.99759-133.081766 407.434944-419.719415 407.434944-705.333357v-24.568942c-60.398647-19.450412-106.465412-69.612-119.773589-131.034354H225.362351c-14.331882 61.422353-60.398647 111.583942-120.797295 131.034354v24.568942c0 286.637649 149.46106 572.251592 407.434944 705.333357z m18.426706 79.84906c-10.237059 5.118529-23.545235 6.142235-34.806 1.023706-295.851002-143.318825-468.857297-463.738768-468.857298-786.206123 0-7.165941 0-16.379294 1.023706-29.687471 0-10.237059 1.023706-19.450412 1.023706-28.663765 0-19.450412 15.355588-35.829706 34.806-37.877118C112.754703 133.081766 150.631821 91.109824 150.631821 40.948236v-1.023706c0-21.497824 18.426706-39.92453 38.900824-39.92453H832.419943c21.497824 0 39.92453 18.426706 39.92453 39.92453 0 50.161589 37.877118 93.157236 88.038707 99.299471 18.426706 2.047412 33.782294 16.379294 34.806 35.829706 1.023706 9.213353 1.023706 18.426706 1.023706 29.687471 1.023706 13.308177 1.023706 22.52153 1.023706 29.687471 0 321.443649-171.982589 642.887298-466.809886 785.182417z" p-id="1593"></path></svg>